<?xml version="1.0" standalone="no"?>
<!DOCTYPE svg PUBLIC "-//W3C//DTD SVG 20010904//EN"
 "http://www.w3.org/TR/2001/REC-SVG-20010904/DTD/svg10.dtd">
<svg version="1.0" xmlns="http://www.w3.org/2000/svg"
 width="1280.000000pt" height="347.000000pt" viewBox="0 0 1280.000000 347.000000"
 preserveAspectRatio="xMidYMid meet">
<metadata>
Created by potrace 1.15, written by Peter Selinger 2001-2017
</metadata>
<g transform="translate(0.000000,347.000000) scale(0.100000,-0.100000)"
fill="#000000" stroke="none">
<path d="M9595 3391 c-72 -18 -130 -64 -167 -132 l-23 -44 0 -1500 0 -1500 22
-40 c28 -52 68 -89 123 -114 45 -20 58 -21 1525 -21 l1480 0 50 24 c54 25 98
70 124 126 14 32 16 181 16 1530 l0 1495 -22 41 c-12 22 -40 57 -62 77 -79 71
18 67 -1590 66 -795 -1 -1459 -4 -1476 -8z m712 -589 c129 -67 181 -222 117
-350 -48 -96 -138 -145 -264 -144 -129 0 -232 74 -265 187 -43 145 32 276 185
326 47 16 181 4 227 -19z m1523 -688 c205 -61 331 -207 385 -445 15 -63 18
-151 22 -576 l5 -503 -255 0 -256 0 -3 463 c-3 418 -6 467 -22 514 -40 112
-116 167 -231 167 -59 0 -79 -4 -123 -29 -57 -31 -102 -80 -130 -142 -15 -34
-17 -87 -20 -505 l-3 -468 -252 0 -252 0 0 755 0 755 253 0 252 0 0 -102 0
-103 27 35 c77 101 202 180 313 199 74 13 222 5 290 -15z m-1410 -769 l0 -755
-255 0 -255 0 0 755 0 755 255 0 255 0 0 -755z"/>
<path d="M1830 2821 c-129 -42 -189 -124 -190 -257 0 -128 65 -215 189 -251
64 -18 165 -13 223 11 198 84 214 369 26 471 -45 25 -66 29 -138 32 -47 1 -96
-1 -110 -6z"/>
<path d="M70 1685 l0 -1105 700 0 700 0 0 235 0 235 -440 0 -440 0 0 870 0
870 -260 0 -260 0 0 -1105z"/>
<path d="M4150 1685 l0 -1105 255 0 255 0 0 248 0 247 57 72 c34 43 61 69 67
63 4 -4 93 -147 196 -317 l187 -308 317 -3 c174 -1 316 0 316 2 0 2 -149 215
-330 472 -321 454 -330 468 -313 487 10 11 138 153 286 315 147 163 267 299
267 304 0 4 -138 7 -307 6 l-306 -3 -154 -215 c-85 -118 -183 -258 -219 -309
l-64 -95 0 622 0 622 -255 0 -255 0 0 -1105z"/>
<path d="M8390 2414 l0 -376 -37 37 c-48 46 -135 91 -215 110 -91 21 -258 19
-350 -4 -371 -95 -591 -465 -548 -919 13 -140 32 -209 92 -331 43 -91 62 -116
137 -191 137 -136 268 -190 466 -190 116 0 190 16 290 64 78 37 143 89 186
149 34 47 35 44 44 -85 l7 -98 230 0 231 0 -7 77 c-3 42 -6 539 -6 1105 l0
1028 -260 0 -260 0 0 -376z m-163 -630 c62 -30 107 -79 140 -151 24 -52 24
-59 21 -260 -3 -233 -11 -261 -84 -337 -63 -65 -106 -81 -214 -81 -102 0 -128
9 -200 65 -139 111 -177 419 -75 620 79 156 258 219 412 144z"/>
<path d="M6303 2200 c-177 -22 -319 -93 -449 -224 -79 -80 -98 -106 -142 -196
-78 -159 -97 -242 -96 -430 1 -181 19 -263 85 -397 93 -188 263 -314 507 -376
118 -29 433 -31 587 -3 101 18 253 61 268 76 7 6 -49 326 -59 338 -1 2 -26 -3
-56 -11 -178 -52 -442 -67 -567 -33 -152 41 -247 127 -275 247 l-6 26 520 -5
c503 -5 520 -4 527 14 5 10 8 93 8 184 0 136 -4 180 -22 252 -87 342 -310 526
-656 542 -56 3 -135 1 -174 -4z m241 -364 c78 -45 136 -150 136 -243 l0 -33
-291 0 -291 0 6 35 c17 90 79 188 146 230 56 35 97 45 176 41 56 -2 82 -9 118
-30z"/>
<path d="M3231 2124 c-100 -21 -168 -59 -243 -136 l-68 -68 0 90 0 90 -259 0
-259 0 -1 -760 -1 -760 259 0 260 0 3 484 3 484 40 58 c54 79 117 117 201 122
86 6 142 -16 192 -73 73 -83 75 -100 79 -617 l5 -458 254 0 255 0 -4 518 c-4
580 -5 591 -77 740 -74 155 -204 255 -373 287 -96 18 -181 18 -266 -1z"/>
<path d="M1670 1340 l0 -760 255 0 255 0 0 760 0 760 -255 0 -255 0 0 -760z"/>
</g>
</svg>
